<svg xmlns="http://www.w3.org/2000/svg" viewBox="0 0 24 24" fill="none">
  <path d="M14 2H6C5.46957 2 4.96086 2.21071 4.58579 2.58579C4.21071 2.96086 4 3.46957 4 4V20C4 20.5304 4.21071 21.0391 4.58579 21.4142C4.96086 21.7893 5.46957 22 6 22H18C18.5304 22 19.0391 21.7893 19.4142 21.4142C19.7893 21.0391 20 20.5304 20 20V8L14 2Z" fill="#5A9FD8" opacity="0.3"/>
  <path d="M14 2H6C5.46957 2 4.96086 2.21071 4.58579 2.58579C4.21071 2.96086 4 3.46957 4 4V20C4 20.5304 4.21071 21.0391 4.58579 21.4142C4.96086 21.7893 5.46957 22 6 22H18C18.5304 22 19.0391 21.7893 19.4142 21.4142C19.7893 21.0391 20 20.5304 20 20V8L14 2Z" stroke="#5A9FD8" stroke-width="1.5" stroke-linecap="round" stroke-linejoin="round"/>
  <path d="M14 2V8H20" stroke="#5A9FD8" stroke-width="1.5" stroke-linecap="round" stroke-linejoin="round"/>
  <path d="M9.5 13L7 15.5L9.5 18" stroke="#5A9FD8" stroke-width="1.5" stroke-linecap="round" stroke-linejoin="round"/>
  <path d="M14.5 13L17 15.5L14.5 18" stroke="#5A9FD8" stroke-width="1.5" stroke-linecap="round" stroke-linejoin="round"/>
  <text x="23" y="23" text-anchor="end" fill="#50D8FF" font-size="6" font-weight="bold">PHP</text>
</svg>